<svg width="804" height="795" viewBox="0 0 804 795" fill="none" xmlns="http://www.w3.org/2000/svg">
<rect x="262.844" width="277.652" height="55.5304" fill="#404040"/>
<rect x="540" y="795" width="289" height="56" transform="rotate(-180 540 795)" fill="#404040"/>
<rect x="159.187" y="55.5304" width="103.657" height="55.5304" fill="#404040"/>
<rect x="643.657" y="739.172" width="103.657" height="55.5304" transform="rotate(-180 643.657 739.172)" fill="#404040"/>
<rect width="103.657" height="55.5304" transform="matrix(-1 0 0 1 643.657 55)" fill="#404040"/>
<rect x="53.0625" y="639.217" width="103.657" height="55.5304" transform="rotate(-90 53.0625 639.217)" fill="#404040"/>
<rect x="106.125" y="111.061" width="53.0624" height="53.0624" fill="#404040"/>
<rect x="696.719" y="683.641" width="53.0624" height="53.0624" transform="rotate(-180 696.719 683.641)" fill="#404040"/>
<rect width="53.0624" height="53.0624" transform="matrix(-1 0 0 1 696.719 110.531)" fill="#404040"/>
<rect x="108.593" y="692.279" width="53.0624" height="53.0624" transform="rotate(-90 108.593 692.279)" fill="#404040"/>
<rect x="53.0625" y="164.123" width="53.0624" height="95.0187" fill="#404040"/>
<rect x="749.781" y="630.579" width="53.0624" height="95.0187" transform="rotate(-180 749.781 630.579)" fill="#404040"/>
<rect width="53.0624" height="95.0187" transform="matrix(-1 0 0 1 749.781 163.593)" fill="#404040"/>
<rect x="161.655" y="745.342" width="53.0624" height="95.0187" transform="rotate(-90 161.655 745.342)" fill="#404040"/>
<rect y="259.142" width="53.0624" height="276.418" fill="#404040"/>
<rect x="803.062" y="531.418" width="53.0624" height="276.418" transform="rotate(-180 803.062 531.418)" fill="#404040"/>
</svg>
